<svg width="25" height="24" viewBox="0 0 25 24" fill="none" xmlns="http://www.w3.org/2000/svg">
<g clip-path="url(#clip0_2162_2392)">
<path d="M20.998 3H2.99805V21H20.998V3Z" fill="white" fill-opacity="0.01"/>
<path d="M4.87305 10.125H19.123V18C19.123 18.4142 18.7873 18.75 18.373 18.75H5.62305C5.20883 18.75 4.87305 18.4142 4.87305 18V10.125Z" stroke="#444444" stroke-width="1.5" stroke-linejoin="round"/>
<path d="M4.87305 6.375C4.87305 5.96079 5.20883 5.625 5.62305 5.625H18.373C18.7873 5.625 19.123 5.96079 19.123 6.375V10.125H4.87305V6.375Z" stroke="#444444" stroke-width="1.5" stroke-linejoin="round"/>
<path d="M8.99805 4.5V7.5" stroke="#444444" stroke-width="1.5" stroke-linecap="round" stroke-linejoin="round"/>
<path d="M14.998 4.5V7.5" stroke="#444444" stroke-width="1.5" stroke-linecap="round" stroke-linejoin="round"/>
<path d="M7.99805 16H15.998" stroke="#444444" stroke-width="1.5" stroke-linecap="round" stroke-linejoin="round"/>
<path d="M7.99805 13H15.998" stroke="#444444" stroke-width="1.5" stroke-linecap="round" stroke-linejoin="round"/>
</g>
<defs>
<clipPath id="clip0_2162_2392">
<rect width="18" height="18" fill="white" transform="translate(2.99805 3)"/>
</clipPath>
</defs>
</svg>
