<svg width="20" height="20" viewBox="0 0 20 20" fill="none" xmlns="http://www.w3.org/2000/svg">
<path d="M7.24508 9.57629C8.07745 9.57629 8.75166 10.2055 8.7364 10.9746C8.7364 11.7437 8.07883 12.3729 7.24508 12.3729C6.42659 12.3729 5.75238 11.7437 5.75238 10.9746C5.75238 10.2055 6.41133 9.57629 7.24508 9.57629ZM12.5833 9.57629C13.417 9.57629 14.076 10.2055 14.076 10.9746C14.076 11.7437 13.417 12.3729 12.5833 12.3729C11.7648 12.3729 11.092 11.7437 11.092 10.9746C11.092 10.2055 11.7495 9.57629 12.5833 9.57629ZM13.9664 16.1666C17.1197 16.0645 18.3335 13.9349 18.3335 13.9349C18.3335 9.20713 16.2776 5.37432 16.2776 5.37432C14.2244 3.79002 12.2684 3.83337 12.2684 3.83337L12.0686 4.06829C14.495 4.83177 15.6214 5.93365 15.6214 5.93365C14.2967 5.18134 12.8367 4.7022 11.3264 4.52414C10.3684 4.41508 9.40081 4.42447 8.44507 4.55211C8.35906 4.55211 8.28692 4.56749 8.2023 4.58147C7.70288 4.62622 6.48902 4.81639 4.96302 5.50716C4.43586 5.75606 4.12095 5.93365 4.12095 5.93365C4.12095 5.93365 5.30568 4.77304 7.87352 4.00956L7.73063 3.83337C7.73063 3.83337 5.77597 3.79002 3.72142 5.37572C3.72142 5.37572 1.66687 9.20713 1.66687 13.9349C1.66687 13.9349 2.86547 16.0631 6.01874 16.1666C6.01874 16.1666 6.5459 15.5066 6.97595 14.9486C5.16279 14.3893 4.47887 13.2147 4.47887 13.2147C4.47887 13.2147 4.62037 13.3182 4.87701 13.465C4.89089 13.479 4.90476 13.4944 4.93389 13.5084C4.9769 13.5391 5.0199 13.5531 5.06291 13.5825C5.41944 13.788 5.77597 13.9488 6.10336 14.0817C6.68879 14.3166 7.38797 14.5515 8.2023 14.7137C9.42215 14.9547 10.6764 14.9595 11.898 14.7277C12.6095 14.5997 13.3038 14.388 13.9664 14.0971C14.4658 13.9055 15.0221 13.6258 15.6075 13.2301C15.6075 13.2301 14.8945 14.4341 13.0245 14.978C13.4531 15.5359 13.9678 16.1666 13.9678 16.1666H13.9664Z" fill="#5A49DE"/>
</svg>
