<svg width="30" height="30" viewBox="0 0 30 30" fill="none" xmlns="http://www.w3.org/2000/svg">
<path d="M13.0591 28.098C12.8236 28.2668 12.5535 28.3813 12.2684 28.4332C11.9833 28.4852 11.6902 28.4732 11.4102 28.3982C11.1303 28.3232 10.8705 28.187 10.6495 27.9995C10.4285 27.812 10.2519 27.5778 10.1323 27.3138C9.84493 26.6795 9.36606 26.1512 8.76298 25.803C8.1599 25.4549 7.46291 25.3044 6.76992 25.3728C6.48155 25.4011 6.19047 25.3652 5.91766 25.2676C5.64484 25.1699 5.39708 25.013 5.19221 24.808C4.98735 24.6031 4.83048 24.3553 4.7329 24.0825C4.63532 23.8096 4.59947 23.5185 4.62792 23.2302C4.69621 22.5371 4.54566 21.8401 4.19741 21.237C3.84916 20.6339 3.32072 20.1551 2.68632 19.8678C2.42232 19.7482 2.18813 19.5716 2.00061 19.3506C1.8131 19.1296 1.67693 18.8698 1.60192 18.5899C1.52692 18.3099 1.51494 18.0168 1.56685 17.7317C1.61876 17.4466 1.73327 17.1765 1.90212 16.941C2.30767 16.375 2.52576 15.6962 2.52576 15C2.52576 14.3037 2.30767 13.6249 1.90212 13.059C1.73327 12.8234 1.61876 12.5534 1.56685 12.2682C1.51494 11.9831 1.52692 11.69 1.60192 11.4101C1.67693 11.1301 1.8131 10.8703 2.00061 10.6493C2.18813 10.4284 2.42232 10.2517 2.68632 10.1322C3.3206 9.84478 3.84892 9.36591 4.19706 8.76283C4.5452 8.15975 4.69566 7.46276 4.62732 6.76977C4.59895 6.4814 4.63489 6.19032 4.73254 5.91751C4.83019 5.64469 4.98713 5.39693 5.19205 5.19206C5.39698 4.98719 5.64479 4.83032 5.91763 4.73275C6.19047 4.63517 6.48156 4.59932 6.76992 4.62777C7.46298 4.69606 8.16002 4.54551 8.76311 4.19726C9.3662 3.84901 9.84503 3.32056 10.1323 2.68617C10.2519 2.42217 10.4285 2.18797 10.6495 2.00046C10.8705 1.81294 11.1303 1.67678 11.4102 1.60177C11.6902 1.52676 11.9833 1.51478 12.2684 1.56669C12.5535 1.61861 12.8236 1.73311 13.0591 1.90197C13.6251 2.30752 14.3039 2.52561 15.0001 2.52561C15.6964 2.52561 16.3752 2.30752 16.9411 1.90197C17.1767 1.73311 17.4467 1.61861 17.7319 1.56669C18.017 1.51478 18.3101 1.52676 18.59 1.60177C18.87 1.67678 19.1298 1.81294 19.3507 2.00046C19.5717 2.18797 19.7484 2.42217 19.8679 2.68617C20.1553 3.32045 20.6342 3.84877 21.2373 4.19691C21.8403 4.54504 22.5373 4.69551 23.2303 4.62717C23.5187 4.5988 23.8098 4.63473 24.0826 4.73239C24.3554 4.83004 24.6032 4.98698 24.808 5.1919C25.0129 5.39683 25.1698 5.64463 25.2673 5.91748C25.3649 6.19032 25.4008 6.4814 25.3723 6.76977C25.304 7.46283 25.4546 8.15987 25.8028 8.76296C26.1511 9.36604 26.6795 9.84487 27.3139 10.1322C27.5779 10.2517 27.8121 10.4284 27.9996 10.6493C28.1871 10.8703 28.3233 11.1301 28.3983 11.4101C28.4733 11.69 28.4853 11.9831 28.4334 12.2682C28.3815 12.5534 28.267 12.8234 28.0981 13.059C27.6926 13.6249 27.4745 14.3037 27.4745 15C27.4745 15.6962 27.6926 16.375 28.0981 16.941C28.267 17.1765 28.3815 17.4466 28.4334 17.7317C28.4853 18.0168 28.4733 18.3099 28.3983 18.5899C28.3233 18.8698 28.1871 19.1296 27.9996 19.3506C27.8121 19.5716 27.5779 19.7482 27.3139 19.8678C26.6796 20.1552 26.1513 20.634 25.8032 21.2371C25.455 21.8402 25.3046 22.5372 25.3729 23.2302C25.4013 23.5185 25.3654 23.8096 25.2677 24.0824C25.1701 24.3552 25.0131 24.603 24.8082 24.8079C24.6033 25.0127 24.3555 25.1696 24.0826 25.2672C23.8098 25.3648 23.5187 25.4006 23.2303 25.3722C22.5373 25.3039 21.8402 25.4544 21.2371 25.8027C20.634 26.1509 20.1552 26.6794 19.8679 27.3138C19.7484 27.5778 19.5717 27.812 19.3507 27.9995C19.1298 28.187 18.87 28.3232 18.59 28.3982C18.3101 28.4732 18.017 28.4852 17.7319 28.4332C17.4467 28.3813 17.1767 28.2668 16.9411 28.098C16.3752 27.6924 15.6964 27.4743 15.0001 27.4743C14.3039 27.4743 13.6251 27.6924 13.0591 28.098Z" fill="#5A49DE"/>
<path d="M20.9026 10.866C21.0657 10.7023 21.2854 10.6076 21.5164 10.6015C21.7473 10.5954 21.9718 10.6784 22.1433 10.8332C22.3147 10.988 22.4201 11.2029 22.4376 11.4332C22.455 11.6636 22.3832 11.8919 22.237 12.0708L22.1752 12.1392L14.5384 19.776C14.3809 19.9334 14.1706 20.0269 13.9482 20.0383C13.7257 20.0498 13.507 19.9783 13.3342 19.8378L13.2658 19.776L9.02318 15.534C8.85931 15.371 8.76441 15.1512 8.75814 14.9202C8.75188 14.6892 8.83472 14.4646 8.98952 14.293C9.14432 14.1214 9.3592 14.0159 9.58964 13.9984C9.82009 13.9809 10.0484 14.0527 10.2274 14.199L10.2958 14.2608L13.9018 17.8662L20.9026 10.8666V10.866Z" fill="white"/>
</svg>
