<svg width="30" height="30" viewBox="0 0 30 30" fill="none" xmlns="http://www.w3.org/2000/svg">
<path d="M11.1366 18.4447C11.5209 18.4447 11.8895 18.2921 12.1613 18.0203C12.433 17.7485 12.5857 17.3799 12.5857 16.9956C12.5857 16.6113 12.433 16.2427 12.1613 15.9709C11.8895 15.6992 11.5209 15.5465 11.1366 15.5465C10.7523 15.5465 10.3837 15.6992 10.1119 15.9709C9.84017 16.2427 9.6875 16.6113 9.6875 16.9956C9.6875 17.3799 9.84017 17.7485 10.1119 18.0203C10.3837 18.2921 10.7523 18.4447 11.1366 18.4447ZM18.8652 18.4447C19.2495 18.4447 19.6181 18.2921 19.8899 18.0203C20.1616 17.7485 20.3143 17.3799 20.3143 16.9956C20.3143 16.6113 20.1616 16.2427 19.8899 15.9709C19.6181 15.6992 19.2495 15.5465 18.8652 15.5465C18.4809 15.5465 18.1123 15.6992 17.8405 15.9709C17.5687 16.2427 17.4161 16.6113 17.4161 16.9956C17.4161 17.3799 17.5687 17.7485 17.8405 18.0203C18.1123 18.2921 18.4809 18.4447 18.8652 18.4447Z" fill="#5A49DE"/>
<path fill-rule="evenodd" clip-rule="evenodd" d="M24.1866 5.20373C22.9741 4.70717 21.7221 4.31978 20.443 4.04445C19.9771 3.94258 19.4901 4.01739 19.0753 4.25276C18.6606 4.48813 18.3474 4.86843 18.1959 5.32063L17.4837 7.45794C16.6603 7.37057 15.8315 7.32935 15.0011 7.33486C14.1705 7.32928 13.3414 7.37046 12.5177 7.45782L11.8054 5.32159V5.31966C11.6539 4.86767 11.3409 4.48752 10.9264 4.25217C10.5118 4.01682 10.025 3.94284 9.55926 4.04445C8.27969 4.31978 7.02696 4.70772 5.81573 5.20373H5.8138C5.5481 5.31354 5.3102 5.48114 5.11736 5.69436C4.92452 5.90759 4.78159 6.16108 4.69895 6.43644L0.593147 20.1121V20.116C0.487438 20.4737 0.487176 20.8542 0.592391 21.212C0.697606 21.5698 0.903829 21.8897 1.18632 22.1332C3.18318 23.8692 5.88529 25.1927 8.96706 25.9463L8.97189 25.9472C9.39623 26.0487 9.84244 26.0032 10.2376 25.8182C10.6328 25.6333 10.9535 25.3198 11.1475 24.929L12.2901 22.6437C13.1886 22.7484 14.0939 22.7981 15.0011 22.792C15.908 22.798 16.813 22.7483 17.7112 22.6436L18.8538 24.928V24.9299C19.0481 25.3204 19.369 25.6335 19.7641 25.8181C20.1593 26.0027 20.6053 26.0478 21.0294 25.9463H21.0343C24.116 25.1927 26.8172 23.8692 28.815 22.1332C29.0973 21.8895 29.3034 21.5697 29.4086 21.2119C29.5138 20.8542 29.5136 20.4737 29.4082 20.116L25.3043 6.43644C25.2217 6.16093 25.0786 5.90731 24.8856 5.69406C24.6926 5.48081 24.4544 5.3133 24.1885 5.20373H24.1866ZM19.7083 22.3177L20.5831 24.0672C23.4234 23.3717 25.8269 22.1699 27.5485 20.6734L27.5533 20.6705L27.5552 20.6676V20.6638L23.4533 6.99193L23.4523 6.99C22.3464 6.53797 21.2026 6.18462 20.0344 5.93408L20.0315 5.93312L20.0298 5.93289L20.0286 5.93408L19.4231 7.75108C20.2118 7.90631 20.9925 8.10458 21.7617 8.34537C21.886 8.38048 22.0019 8.44014 22.1028 8.52083C22.2036 8.60153 22.2872 8.70162 22.3487 8.81519C22.4101 8.92876 22.4482 9.0535 22.4607 9.18204C22.4731 9.31058 22.4596 9.44031 22.4211 9.56356C22.3825 9.6868 22.3196 9.80107 22.2361 9.8996C22.1527 9.99812 22.0503 10.0789 21.935 10.1372C21.8198 10.1955 21.694 10.23 21.5652 10.2389C21.4364 10.2477 21.3071 10.2306 21.1849 10.1886C20.1692 9.87078 19.1305 9.63415 18.0807 9.48022C18.0352 9.47697 17.9899 9.47049 17.9453 9.46084C16.9736 9.32509 15.9919 9.2601 15.0079 9.26701H14.9943C12.9 9.25226 10.8161 9.56319 8.81728 10.1886C8.69572 10.2286 8.56743 10.2441 8.43985 10.234C8.31228 10.224 8.18796 10.1888 8.07413 10.1303C7.96029 10.0718 7.8592 9.99135 7.77674 9.8935C7.69427 9.79565 7.63206 9.68239 7.59373 9.56029C7.5554 9.4382 7.54171 9.30971 7.55346 9.18228C7.5652 9.05485 7.60214 8.93103 7.66214 8.81799C7.72213 8.70496 7.80399 8.60498 7.90295 8.52384C8.00191 8.44271 8.11601 8.38204 8.23861 8.34537C9.00851 8.10436 9.78994 7.90595 10.5793 7.75066L9.9737 5.93312H9.97177L9.96694 5.93215C8.79896 6.18333 7.65513 6.53788 6.54994 6.99L6.54898 6.99096L2.44607 20.6638V20.6676C2.44607 20.6676 2.44607 20.6696 2.448 20.6705L2.45187 20.6734C4.17341 22.1708 6.57796 23.3717 9.41724 24.0672L10.2925 22.3178C9.6006 22.1722 8.91515 21.9933 8.23861 21.7815C7.99421 21.7048 7.79026 21.5343 7.6716 21.3073C7.55294 21.0803 7.52929 20.8154 7.60583 20.571C7.68249 20.3266 7.85404 20.1227 8.08103 20.004C8.30803 19.8853 8.57285 19.8617 8.81728 19.9382C9.78121 20.2397 10.7649 20.4683 11.76 20.6225C11.7747 20.6229 11.7894 20.6235 11.8041 20.6245C11.8698 20.6291 11.9347 20.6403 11.9977 20.6579C12.9887 20.7994 13.9903 20.8673 14.9943 20.8599H15.0079C17.1022 20.8747 19.1861 20.5637 21.1849 19.9382C21.427 19.8699 21.6862 19.8986 21.9074 20.0183C22.1286 20.1381 22.2944 20.3394 22.3695 20.5794C22.4446 20.8195 22.4231 21.0794 22.3096 21.3039C22.1961 21.5284 21.9995 21.6997 21.7617 21.7815C21.0853 21.9932 20.4001 22.1721 19.7083 22.3177Z" fill="#5A49DE"/>
</svg>
