<svg width="56" height="56" viewBox="0 0 56 56" fill="none" xmlns="http://www.w3.org/2000/svg">
<g filter="url(#filter0_d_195_187)">
<circle cx="28" cy="28" r="16" fill="white"/>
</g>
<path d="M28 38C26.4971 37.9999 25.029 37.5483 23.7859 36.7037C22.5428 35.8592 21.5821 34.6606 21.0283 33.2635C20.4746 31.8664 20.3533 30.3352 20.6803 28.8683C21.0072 27.4015 21.7673 26.0667 22.862 25.037C24.204 23.774 27.5 21.5 27 16.5C33 20.5 36 24.5 30 30.5C31 30.5 32.5 30.5 35 28.03C35.27 28.803 35.5 29.634 35.5 30.5C35.5 32.4891 34.7098 34.3968 33.3033 35.8033C31.8968 37.2098 29.9891 38 28 38Z" fill="#FF3B30"/>
<defs>
<filter id="filter0_d_195_187" x="0" y="0" width="56" height="56" filterUnits="userSpaceOnUse" color-interpolation-filters="sRGB">
<feFlood flood-opacity="0" result="BackgroundImageFix"/>
<feColorMatrix in="SourceAlpha" type="matrix" values="0 0 0 0 0 0 0 0 0 0 0 0 0 0 0 0 0 0 127 0" result="hardAlpha"/>
<feOffset/>
<feGaussianBlur stdDeviation="6"/>
<feComposite in2="hardAlpha" operator="out"/>
<feColorMatrix type="matrix" values="0 0 0 0 0.654439 0 0 0 0 0.654439 0 0 0 0 0.654439 0 0 0 0.05 0"/>
<feBlend mode="normal" in2="BackgroundImageFix" result="effect1_dropShadow_195_187"/>
<feBlend mode="normal" in="SourceGraphic" in2="effect1_dropShadow_195_187" result="shape"/>
</filter>
</defs>
</svg>
