<svg width="155" height="156" viewBox="0 0 155 156" fill="none" xmlns="http://www.w3.org/2000/svg">
<rect x="0.653809" y="57.8459" width="95.2304" height="114.276" rx="15.1249" transform="rotate(-31 0.653809 57.8459)" fill="url(#paint0_linear_520_572)"/>
<rect x="14.3386" y="49.7854" width="95.2304" height="114.276" rx="15.1249" transform="rotate(-31 14.3386 49.7854)" fill="url(#paint1_linear_520_572)"/>
<rect x="15.8632" y="50.1655" width="93.0083" height="112.054" rx="14.0138" transform="rotate(-31 15.8632 50.1655)" stroke="url(#paint2_linear_520_572)" stroke-opacity="0.2" stroke-width="2.22204"/>
<g clip-path="url(#clip0_520_572)">
<g filter="url(#filter0_dd_520_572)">
<path d="M86.5927 96.2835L77.5771 105.153L73.362 93.2289C70.0383 91.32 67.2385 88.6184 65.2123 85.3649C58.3833 74.4361 61.7066 60.0414 72.6353 53.2124C83.5641 46.3833 97.9589 49.7066 104.788 60.6354C111.617 71.5642 108.294 85.9589 97.3649 92.7879C94.1175 94.8239 90.4168 96.0248 86.5927 96.2835ZM75.1062 79.1825C76.7459 81.8066 79.3608 83.6718 82.3757 84.3678C85.3906 85.0638 88.5585 84.5337 91.1825 82.894C93.8065 81.2544 95.6717 78.6395 96.3678 75.6246C97.0638 72.6097 96.5337 69.4418 94.894 66.8177L90.9365 69.2907C91.9203 70.8651 92.2383 72.7659 91.8207 74.5748C91.4031 76.3837 90.284 77.9527 88.7096 78.9365C87.1352 79.9203 85.2344 80.2384 83.4255 79.8207C81.6165 79.4031 80.0476 78.284 79.0638 76.7096L75.1062 79.1825Z" fill="white"/>
</g>
</g>
<defs>
<filter id="filter0_dd_520_572" x="57.6635" y="46.6636" width="54.6732" height="62.4893" filterUnits="userSpaceOnUse" color-interpolation-filters="sRGB">
<feFlood flood-opacity="0" result="BackgroundImageFix"/>
<feColorMatrix in="SourceAlpha" type="matrix" values="0 0 0 0 0 0 0 0 0 0 0 0 0 0 0 0 0 0 127 0" result="hardAlpha"/>
<feOffset dx="2" dy="2"/>
<feGaussianBlur stdDeviation="1"/>
<feComposite in2="hardAlpha" operator="out"/>
<feColorMatrix type="matrix" values="0 0 0 0 0.357951 0 0 0 0 0.42813 0 0 0 0 0.704167 0 0 0 0.6 0"/>
<feBlend mode="normal" in2="BackgroundImageFix" result="effect1_dropShadow_520_572"/>
<feColorMatrix in="SourceAlpha" type="matrix" values="0 0 0 0 0 0 0 0 0 0 0 0 0 0 0 0 0 0 127 0" result="hardAlpha"/>
<feOffset dx="-2" dy="-1"/>
<feGaussianBlur stdDeviation="1"/>
<feComposite in2="hardAlpha" operator="out"/>
<feColorMatrix type="matrix" values="0 0 0 0 1 0 0 0 0 1 0 0 0 0 1 0 0 0 0.6 0"/>
<feBlend mode="normal" in2="effect1_dropShadow_520_572" result="effect2_dropShadow_520_572"/>
<feBlend mode="normal" in="SourceGraphic" in2="effect2_dropShadow_520_572" result="shape"/>
</filter>
<linearGradient id="paint0_linear_520_572" x1="20.0056" y1="57.5729" x2="18.9664" y2="172.34" gradientUnits="userSpaceOnUse">
<stop stop-color="#BCC8F7"/>
<stop offset="0.15625" stop-color="#C4D0FB"/>
<stop offset="0.5" stop-color="#C8D3FC"/>
<stop offset="0.760417" stop-color="#C8D3FC"/>
<stop offset="0.901042" stop-color="#DCE3FF"/>
<stop offset="1" stop-color="#97A6DB"/>
</linearGradient>
<linearGradient id="paint1_linear_520_572" x1="13.5352" y1="107.756" x2="112.389" y2="111.277" gradientUnits="userSpaceOnUse">
<stop stop-color="#CCD7FF"/>
<stop offset="1" stop-color="#9AA9DF"/>
</linearGradient>
<linearGradient id="paint2_linear_520_572" x1="15.2601" y1="114.674" x2="106.268" y2="122.049" gradientUnits="userSpaceOnUse">
<stop stop-color="white" stop-opacity="0.67"/>
<stop offset="1" stop-color="white" stop-opacity="0"/>
</linearGradient>
<clipPath id="clip0_520_572">
<rect width="56" height="56" fill="white" transform="translate(46.417 64.0925) rotate(-32)"/>
</clipPath>
</defs>
</svg>
