<svg width="190" height="184" viewBox="0 0 190 184" fill="none" xmlns="http://www.w3.org/2000/svg">
<rect x="57.913" y="3" width="140" height="140" rx="18" transform="rotate(20.4493 57.913 3)" fill="#7F83A8"/>
<rect x="48.913" width="140" height="140" rx="18" transform="rotate(20.4493 48.913 0)" fill="url(#paint0_linear_520_586)"/>
<rect x="49.5006" y="1.28636" width="138" height="138" rx="17" transform="rotate(20.4493 49.5006 1.28636)" stroke="url(#paint1_linear_520_586)" stroke-opacity="0.6" stroke-width="2"/>
<g filter="url(#filter0_d_520_586)">
<path d="M120.401 94.0715C119.55 100.427 116.728 106.355 112.333 111.023L108.82 106.772L103.099 123.925L121.024 121.551L117.241 116.973C130.957 103.154 132.212 80.9163 119.557 65.5929C115.292 60.4242 109.747 56.4642 103.474 54.1079C97.2017 51.7516 90.4207 51.0815 83.808 52.1643L85.0446 59.7318C91.3722 58.6953 97.8656 59.668 103.612 62.5132C109.358 65.3583 114.068 69.9328 117.079 75.5935C120.091 81.2541 121.253 87.7163 120.401 94.0715Z" fill="white"/>
<path d="M67.6628 68.9819C63.2695 73.6496 60.449 79.5766 59.5979 85.93C58.7465 92.2852 59.9082 98.7474 62.9198 104.408C65.9314 110.069 70.6413 114.643 76.3874 117.488C82.1336 120.333 88.6269 121.306 94.9545 120.27L96.1911 127.837C89.5784 128.92 82.7974 128.25 76.5246 125.894C70.2519 123.537 64.7066 119.577 60.4423 114.409C47.7868 99.0853 49.0423 76.8474 62.7582 63.028L58.9698 58.4529L76.8947 56.0791L71.1738 73.2315L67.6628 68.9819Z" fill="white"/>
<path d="M74.5988 95.9395L78.0737 86.6208L71.8477 84.2992L73.2453 80.5513L79.4712 82.8729L82.4364 74.9212L88.433 77.1573L89.4371 91.5001L99.5868 81.3165L105.583 83.5526L102.618 91.5043L108.85 93.8281L107.453 97.576L101.221 95.2522L97.7459 104.571L92.8886 102.76L97.8228 89.4358L88.754 98.8272L85.156 97.4855L84.4503 84.4493L79.4861 97.7619L74.5988 95.9395Z" fill="white"/>
<path d="M112.354 110.264L109.206 106.454L108.631 105.758L108.346 106.614L102.625 123.766L102.372 124.525L103.165 124.42L121.09 122.047L121.985 121.928L121.41 121.232L117.913 117.002C131.51 102.981 132.665 80.6789 119.942 65.2745C115.622 60.0385 110.005 56.0268 103.65 53.6398C97.2957 51.2528 90.4262 50.5739 83.7272 51.6708L83.234 51.7516L83.3146 52.2449L84.5512 59.8124L84.6319 60.306L85.1255 60.2252C91.3499 59.2056 97.7374 60.1625 103.39 62.9613C109.042 65.76 113.675 70.2599 116.638 75.8283C119.6 81.3967 120.743 87.7535 119.906 94.0051C119.093 100.069 116.457 105.738 112.354 110.264ZM60.0566 114.727C64.3766 119.963 69.9942 123.975 76.3488 126.362C82.7034 128.749 89.5729 129.428 96.2719 128.331L96.7652 128.25L96.6845 127.757L95.4479 120.189L95.3673 119.695L94.8737 119.776C88.6492 120.796 82.2618 119.839 76.6093 117.04C70.9569 114.241 66.3237 109.742 63.3612 104.173C60.3987 98.6048 59.2559 92.248 60.0934 85.9964C60.9056 79.9342 63.5403 74.2667 67.6418 69.7415L70.7883 73.55L71.3627 74.2453L71.6481 73.3897L77.369 56.2373L77.6222 55.4784L76.8291 55.5834L58.9042 57.9572L58.0085 58.0758L58.5847 58.7718L62.0856 62.9997C48.4895 77.0212 47.3345 99.3225 60.0566 114.727ZM74.1304 95.7648L73.9557 96.2333L74.4242 96.408L79.3114 98.2304L79.7799 98.4051L79.9546 97.9366L84.0807 86.8716L84.6568 97.5125L84.6745 97.8396L84.9813 97.954L88.5793 99.2957L88.8862 99.4101L89.1137 99.1745L96.5256 91.499L92.4198 102.586L92.2465 103.054L92.714 103.228L97.5712 105.039L98.0397 105.214L98.2144 104.746L101.515 95.8954L107.278 98.0445L107.747 98.2192L107.921 97.7507L109.319 94.0028L109.494 93.5343L109.025 93.3596L103.262 91.2105L106.052 83.7273L106.227 83.2588L105.758 83.0841L99.7615 80.848L99.4599 80.7355L99.2327 80.9635L89.8591 90.3684L88.9318 77.1224L88.9093 76.8013L88.6077 76.6888L82.6111 74.4527L82.1426 74.278L81.9679 74.7465L79.1775 82.2297L73.42 80.0828L72.9515 79.9081L72.7768 80.3766L71.3792 84.1245L71.2045 84.593L71.673 84.7677L77.4305 86.9146L74.1304 95.7648Z" stroke="white"/>
</g>
<defs>
<filter id="filter0_d_520_586" x="50.6657" y="50.6606" width="82.0132" height="82.0256" filterUnits="userSpaceOnUse" color-interpolation-filters="sRGB">
<feFlood flood-opacity="0" result="BackgroundImageFix"/>
<feColorMatrix in="SourceAlpha" type="matrix" values="0 0 0 0 0 0 0 0 0 0 0 0 0 0 0 0 0 0 127 0" result="hardAlpha"/>
<feOffset dx="1.67273" dy="1.67273"/>
<feGaussianBlur stdDeviation="0.836364"/>
<feComposite in2="hardAlpha" operator="out"/>
<feColorMatrix type="matrix" values="0 0 0 0 0.357951 0 0 0 0 0.42813 0 0 0 0 0.704167 0 0 0 0.6 0"/>
<feBlend mode="normal" in2="BackgroundImageFix" result="effect1_dropShadow_520_586"/>
<feBlend mode="normal" in="SourceGraphic" in2="effect1_dropShadow_520_586" result="shape"/>
</filter>
<linearGradient id="paint0_linear_520_586" x1="118.913" y1="0" x2="118.913" y2="140" gradientUnits="userSpaceOnUse">
<stop stop-color="#B7BEFF"/>
<stop offset="1" stop-color="#E1E4FF"/>
</linearGradient>
<linearGradient id="paint1_linear_520_586" x1="183.697" y1="132.243" x2="117.632" y2="35.2099" gradientUnits="userSpaceOnUse">
<stop stop-color="white" stop-opacity="0.63"/>
<stop offset="1" stop-color="white" stop-opacity="0"/>
</linearGradient>
</defs>
</svg>
