<svg width="21" height="20" viewBox="0 0 21 20" fill="none" xmlns="http://www.w3.org/2000/svg">
<path d="M16.4762 13.5978L15.0375 12.157L16.4762 10.7183C16.952 10.2467 17.3299 9.6857 17.5883 9.06759C17.8467 8.44948 17.9805 7.78642 17.982 7.11647C17.9834 6.44652 17.8526 5.78288 17.5969 5.16365C17.3412 4.54441 16.9657 3.98178 16.4919 3.50805C16.0182 3.03433 15.4556 2.65883 14.8364 2.40313C14.2171 2.14743 13.5535 2.01656 12.8835 2.01802C12.2136 2.01949 11.5505 2.15327 10.9324 2.41168C10.3143 2.67009 9.75332 3.04804 9.28167 3.52384L7.84298 4.96355L6.40326 3.52486L7.84399 2.08616C9.17974 0.750416 10.9914 0 12.8804 0C14.7695 0 16.5811 0.750416 17.9169 2.08616C19.2526 3.42191 20.003 5.23358 20.003 7.12261C20.003 9.01165 19.2526 10.8233 17.9169 12.1591L16.4772 13.5978H16.4762ZM13.5988 16.4751L12.1591 17.9138C10.8233 19.2496 9.01165 20 7.12261 20C5.23358 20 3.42191 19.2496 2.08616 17.9138C0.750416 16.5781 1.99042e-08 14.7664 0 12.8774C-1.99042e-08 10.9884 0.750416 9.17669 2.08616 7.84094L3.52588 6.40225L4.96457 7.84298L3.52588 9.28167C3.05008 9.75332 2.67213 10.3143 2.41371 10.9324C2.1553 11.5505 2.02153 12.2136 2.02006 12.8835C2.01859 13.5535 2.14946 14.2171 2.40517 14.8364C2.66087 15.4556 3.03636 16.0182 3.51009 16.4919C3.98381 16.9657 4.54645 17.3412 5.16568 17.5969C5.78491 17.8526 6.44856 17.9834 7.11851 17.982C7.78845 17.9805 8.45152 17.8467 9.06963 17.5883C9.68773 17.3299 10.2487 16.952 10.7204 16.4762L12.1591 15.0375L13.5988 16.4762V16.4751ZM12.8784 5.6829L14.3181 7.12261L7.12363 14.3161L5.68392 12.8774L12.8784 5.68392V5.6829Z" fill="#444444"/>
</svg>
