<svg width="40" height="35" viewBox="0 0 40 35" fill="none" xmlns="http://www.w3.org/2000/svg">
<path fill-rule="evenodd" clip-rule="evenodd" d="M1.06711 34.4892H38.9339C39.5218 34.4892 40 34.011 40 33.4231V1.06639C40 0.746568 39.8538 0.44198 39.6071 0.240949C39.3604 0.036873 39.0344 -0.0423212 38.7207 0.021643C38.4283 0.0825613 31.4988 1.53546 24.9958 6.71656C24.5328 7.08512 24.0912 7.45976 23.6678 7.83441C22.5774 6.85667 20.3173 5.02608 16.8876 3.20158C11.6456 0.411521 6.57718 0.0216421 6.36396 0.00641252C5.84616 -0.0301384 5.37403 0.314048 5.2522 0.822715L0.0284649 22.6284C-0.0415912 22.9239 0.0193204 23.2376 0.192938 23.4874C0.369601 23.7371 0.643743 23.9016 0.945288 23.9351L2.56267 24.1209L0.0406418 33.1368C-0.0507356 33.4597 0.0162797 33.8039 0.21731 34.0689C0.41834 34.3339 0.735109 34.4892 1.06711 34.4892ZM37.8679 32.3571H21.0544V31.0605C22.3552 30.9364 24.7176 30.5908 27.3167 29.631C27.8681 29.427 28.1513 28.8117 27.9473 28.2604C27.7432 27.7091 27.1279 27.4258 26.5766 27.6299C24.3372 28.4569 22.2626 28.786 21.0544 28.9154V23.2254C21.0788 23.128 21.091 23.0244 21.0879 22.9178C21.0666 22.3421 20.5975 21.8883 20.0219 21.8883H19.9883C19.9579 21.8883 19.9305 21.8883 19.9031 21.8913C19.7051 21.8974 18.9436 21.87 18.1699 21.4832C17.6917 21.2425 17.2897 20.9288 17.0094 20.6729C18.2095 18.0474 20.6584 12.8967 26.3269 8.38268C30.8196 4.80373 35.6322 3.09801 37.8679 2.44619V32.3571ZM3.98108 26.9559C4.06134 26.9915 4.14738 27.0176 4.23809 27.0328L4.24158 27.0335C4.3676 27.0556 7.64437 27.6314 10.001 28.9883C10.1685 29.0858 10.3512 29.1315 10.5309 29.1315C10.8995 29.1315 11.2589 28.9396 11.4569 28.5984C11.7524 28.0867 11.5757 27.4349 11.064 27.1425C8.33484 25.5708 4.7437 24.9555 4.59141 24.9311C4.57719 24.9288 4.563 24.9267 4.54883 24.9249L3.98108 26.9559Z" fill="black"/>
<mask id="mask0_204_93" style="mask-type:alpha" maskUnits="userSpaceOnUse" x="0" y="0" width="40" height="35">
<path fill-rule="evenodd" clip-rule="evenodd" d="M1.06711 34.4892H38.9339C39.5218 34.4892 40 34.011 40 33.4231V1.06639C40 0.746568 39.8538 0.44198 39.6071 0.240949C39.3604 0.036873 39.0344 -0.0423212 38.7207 0.021643C38.4283 0.0825613 31.4988 1.53546 24.9958 6.71656C24.5328 7.08512 24.0912 7.45976 23.6678 7.83441C22.5774 6.85667 20.3173 5.02608 16.8876 3.20158C11.6456 0.411521 6.57718 0.0216421 6.36396 0.00641252C5.84616 -0.0301384 5.37403 0.314048 5.2522 0.822715L0.0284649 22.6284C-0.0415912 22.9239 0.0193204 23.2376 0.192938 23.4874C0.369601 23.7371 0.643743 23.9016 0.945288 23.9351L2.56267 24.1209L0.0406418 33.1368C-0.0507356 33.4597 0.0162797 33.8039 0.21731 34.0689C0.41834 34.3339 0.735109 34.4892 1.06711 34.4892ZM37.8679 32.3571H21.0544V31.0605C22.3552 30.9364 24.7176 30.5908 27.3167 29.631C27.8681 29.427 28.1513 28.8117 27.9473 28.2604C27.7432 27.7091 27.1279 27.4258 26.5766 27.6299C24.3372 28.4569 22.2626 28.786 21.0544 28.9154V23.2254C21.0788 23.128 21.091 23.0244 21.0879 22.9178C21.0666 22.3421 20.5975 21.8883 20.0219 21.8883H19.9883C19.9579 21.8883 19.9305 21.8883 19.9031 21.8913C19.7051 21.8974 18.9436 21.87 18.1699 21.4832C17.6917 21.2425 17.2897 20.9288 17.0094 20.6729C18.2095 18.0474 20.6584 12.8967 26.3269 8.38268C30.8196 4.80373 35.6322 3.09801 37.8679 2.44619V32.3571ZM3.98108 26.9559C4.06134 26.9915 4.14738 27.0176 4.23809 27.0328L4.24158 27.0335C4.3676 27.0556 7.64437 27.6314 10.001 28.9883C10.1685 29.0858 10.3512 29.1315 10.5309 29.1315C10.8995 29.1315 11.2589 28.9396 11.4569 28.5984C11.7524 28.0867 11.5757 27.4349 11.064 27.1425C8.33484 25.5708 4.7437 24.9555 4.59141 24.9311C4.57719 24.9288 4.563 24.9267 4.54883 24.9249L3.98108 26.9559Z" fill="url(#paint0_linear_204_93)"/>
</mask>
<g mask="url(#mask0_204_93)">
</g>
<defs>
<linearGradient id="paint0_linear_204_93" x1="14" y1="34" x2="14.7303" y2="-0.112811" gradientUnits="userSpaceOnUse">
<stop stop-color="#5A49DE"/>
<stop offset="1" stop-color="#F7C4D7"/>
</linearGradient>
</defs>
</svg>
