<svg width="193" height="48" viewBox="0 0 193 48" fill="none" xmlns="http://www.w3.org/2000/svg">
<path d="M96.1474 35.9275V27.8401C96.1474 27.5497 96.1565 27.1685 96.1656 26.7055C96.1746 26.2426 96.1837 25.7706 96.1837 25.2896C96.1837 24.8085 96.1928 24.3547 96.2019 23.9372C96.2109 23.5196 96.22 22.9932 96.22 22.9932C96.22 22.9932 95.9931 23.5015 96.22 22.9932L91.3458 33.6855H89.4034L84.2388 22.9932C84.2388 23.2019 84.2479 23.5196 84.257 23.9372C84.266 24.3547 84.2751 24.8085 84.2751 25.2896C84.2751 25.7706 84.2842 26.2426 84.2933 26.7055C84.3023 27.1685 84.3114 27.5406 84.3114 27.8401V35.9275H80V13.9165H84.2479L88.8407 23.8827C88.9859 24.2004 89.1311 24.5271 89.2854 24.8721C89.4307 25.217 89.5759 25.5619 89.7121 25.8977C89.8482 26.2336 89.9753 26.5512 90.0933 26.8417C90.2113 27.1321 90.3021 27.3772 90.3565 27.5678C90.5017 27.1503 90.7105 26.5876 90.9828 25.8886C91.2551 25.1897 91.5365 24.5181 91.8269 23.8918L96.2382 13.9256H100.613V35.9365H96.1474V35.9275ZM118.158 25.1171C118.276 25.4076 118.376 25.6527 118.449 25.8614C118.521 26.0702 118.585 26.2517 118.63 26.4151L109.508 30.1819C109.762 30.6902 110.062 31.0896 110.407 31.371C110.752 31.6614 111.115 31.852 111.496 31.9519C111.877 32.0517 112.268 32.088 112.676 32.0426C113.075 31.9972 113.466 31.9065 113.829 31.7522C114.392 31.5162 114.854 31.2166 115.218 30.8354C115.581 30.4542 115.844 30.0458 115.998 29.5919L119.828 30.7991C119.538 31.852 118.984 32.796 118.158 33.6311C117.332 34.4661 116.416 35.1015 115.39 35.5281C114.283 35.9819 113.212 36.2088 112.177 36.1907C111.142 36.1816 110.171 35.9547 109.263 35.519C108.356 35.0924 107.539 34.457 106.794 33.6129C106.277 33.032 105.823 32.3603 105.424 31.6069C105.251 31.2711 105.088 30.9262 104.934 30.554C104.453 29.3922 104.189 28.2486 104.126 27.1321C104.062 26.0157 104.198 24.9719 104.516 24.0098C104.834 23.0476 105.324 22.2035 105.987 21.4774C106.649 20.7512 107.466 20.1885 108.437 19.7891C109.445 19.3716 110.434 19.2082 111.414 19.2899C112.386 19.3716 113.302 19.6711 114.137 20.1703C114.982 20.6695 115.744 21.3503 116.434 22.1944C117.142 23.0658 117.714 24.0279 118.158 25.1171ZM112.903 24.0733C112.658 23.801 112.367 23.5832 112.032 23.4107C111.705 23.2382 111.342 23.1475 110.942 23.1293C110.552 23.1112 110.126 23.1929 109.681 23.3744C108.946 23.683 108.474 24.1822 108.265 24.8811C108.056 25.58 108.074 26.3334 108.31 27.1412L113.538 24.981C113.366 24.6451 113.148 24.3456 112.903 24.0733Z" fill="#040000"/>
<path d="M131.438 35.2651C131.084 35.5555 130.603 35.8006 129.995 35.9912C129.386 36.1819 128.751 36.2726 128.079 36.2726C127.408 36.2726 126.79 36.1546 126.246 35.9096C125.692 35.6645 125.229 35.3286 124.848 34.8839C124.467 34.4391 124.176 33.9217 123.959 33.3136C123.75 32.7055 123.641 32.0338 123.641 31.2986V23.5017H120.873V19.4172H123.641V15.1693L128.016 13V19.4172H131.982V23.5017H128.016V30.1368C128.016 30.9355 128.152 31.462 128.424 31.7252C128.697 31.9884 129.096 32.1155 129.622 32.1155C130.022 32.1155 130.394 32.0156 130.739 31.8341C131.084 31.6435 131.529 31.3167 132.073 30.8629L131.438 35.2651ZM149.555 27.6861C149.555 28.9477 149.364 30.1005 148.992 31.1624C148.611 32.2244 148.093 33.1321 147.431 33.8854C146.768 34.6388 145.979 35.2288 145.053 35.6463C144.127 36.0639 143.138 36.2726 142.067 36.2726C140.995 36.2726 140.006 36.0639 139.098 35.6463C138.191 35.2288 137.401 34.6388 136.739 33.8854C136.076 33.1321 135.559 32.2244 135.177 31.1624C134.796 30.1005 134.615 28.9477 134.615 27.6861C134.615 26.4244 134.805 25.2717 135.177 24.2097C135.559 23.1477 136.076 22.2401 136.739 21.4776C137.401 20.7152 138.182 20.1161 139.098 19.6986C140.006 19.2811 141.005 19.0723 142.067 19.0723C143.138 19.0723 144.127 19.2811 145.053 19.6986C145.979 20.1161 146.768 20.7061 147.431 21.4776C148.093 22.2401 148.611 23.1568 148.992 24.2097C149.364 25.2717 149.555 26.4244 149.555 27.6861ZM145.18 27.6861C145.18 26.4244 144.926 25.3715 144.417 24.5274C143.909 23.6742 143.129 23.2567 142.067 23.2567C141.005 23.2567 140.233 23.6742 139.734 24.5183C139.235 25.3534 138.99 26.4153 138.99 27.6951C138.99 28.975 139.235 30.0279 139.734 30.8538C140.233 31.6798 141.014 32.0973 142.067 32.0973C142.593 32.0973 143.056 31.9793 143.446 31.7343C143.837 31.4892 144.163 31.1715 144.417 30.7631C144.672 30.3546 144.862 29.8826 144.989 29.3471C145.116 28.8025 145.18 28.2488 145.18 27.6861ZM167.164 27.8767C167.164 29.1111 167.018 30.2457 166.737 31.2714C166.456 32.297 166.038 33.1865 165.503 33.9308C164.958 34.6751 164.286 35.247 163.497 35.6554C162.707 36.0639 161.79 36.2726 160.774 36.2726C160.038 36.2726 159.376 36.1455 158.786 35.8914C158.187 35.6372 157.697 35.3377 157.297 34.9837V39.8307L152.922 42V19.4172H157.297L157.27 20.452C157.688 20.098 158.178 19.7712 158.731 19.4898C159.285 19.2084 159.966 19.0632 160.755 19.0632C161.636 19.0632 162.462 19.2357 163.242 19.5715C164.014 19.9074 164.704 20.4338 165.285 21.16C165.875 21.8861 166.328 22.8028 166.664 23.9102C166.991 25.0266 167.164 26.3427 167.164 27.8767ZM162.789 27.9675C162.789 26.2701 162.534 25.0448 162.017 24.2914C161.5 23.538 160.819 23.1568 159.957 23.1568C159.285 23.1568 158.749 23.2839 158.35 23.538C157.951 23.7922 157.597 24.128 157.279 24.5455V30.7722C157.969 31.7161 158.949 32.1881 160.202 32.1881C161.926 32.179 162.789 30.7812 162.789 27.9675ZM175.405 15.5778C175.405 16.2494 175.16 16.8304 174.67 17.3205C174.18 17.8106 173.599 18.0557 172.927 18.0557C172.256 18.0557 171.675 17.8106 171.185 17.3205C170.694 16.8304 170.449 16.2494 170.449 15.5778C170.449 14.9061 170.694 14.3252 171.185 13.8351C171.675 13.3449 172.256 13.0999 172.927 13.0999C173.599 13.0999 174.18 13.3449 174.67 13.8351C175.151 14.3252 175.405 14.9061 175.405 15.5778ZM170.749 35.9277V19.4172H175.124V35.9277H170.749ZM188.512 35.9277L188.539 34.8294C188.14 35.247 187.613 35.5919 186.969 35.8642C186.315 36.1365 185.607 36.2726 184.827 36.2726C184.055 36.2726 183.293 36.1546 182.567 35.9096C181.831 35.6645 181.178 35.3105 180.597 34.8203C180.016 34.3393 179.553 33.7311 179.199 32.9959C178.845 32.2607 178.664 31.3893 178.664 30.3818C178.664 29.4832 178.836 28.6845 179.181 27.9947C179.526 27.3049 179.998 26.733 180.606 26.2792C181.214 25.8254 181.913 25.4895 182.721 25.2535C183.529 25.0266 184.4 24.9086 185.335 24.9086C186.088 24.9086 186.715 24.9812 187.214 25.1174C187.713 25.2535 188.14 25.4078 188.503 25.5712V24.7543C188.503 24.1643 188.312 23.6651 187.922 23.2567C187.532 22.8482 186.942 22.6394 186.143 22.6394C185.644 22.6394 185.19 22.6576 184.809 22.703C184.418 22.7484 184.055 22.8119 183.71 22.8936C183.365 22.9753 183.021 23.0842 182.685 23.2203C182.349 23.3565 181.995 23.529 181.614 23.7377L179.962 20.7333C180.443 20.461 180.906 20.216 181.359 20.0072C181.813 19.7984 182.285 19.626 182.775 19.4898C183.266 19.3537 183.783 19.2448 184.337 19.1722C184.881 19.0995 185.489 19.0632 186.161 19.0632C187.169 19.0632 188.085 19.1903 188.902 19.4444C189.719 19.6986 190.427 20.0707 191.017 20.5609C191.607 21.051 192.07 21.6591 192.397 22.3853C192.723 23.1114 192.887 23.9283 192.887 24.8541V35.9277H188.512ZM188.512 29.0113C188.14 28.7844 187.74 28.6028 187.314 28.4939C186.887 28.3759 186.297 28.3214 185.526 28.3214C184.718 28.3214 184.101 28.503 183.674 28.857C183.247 29.2109 183.039 29.7283 183.039 30.4C183.039 30.99 183.229 31.4983 183.601 31.943C183.974 32.3878 184.618 32.6056 185.526 32.6056C186.234 32.6056 186.851 32.4513 187.377 32.1518C187.904 31.8523 188.285 31.4983 188.512 31.0989V29.0113ZM109.508 30.1912C109.763 30.6995 110.062 31.0989 110.407 31.3803C110.752 31.6707 111.115 31.8614 111.496 31.9612C111.878 32.061 112.268 32.0974 112.676 32.052C113.076 32.0066 113.466 31.9158 113.829 31.7615C114.392 31.5255 114.855 31.226 115.218 30.8448C115.581 30.4635 115.844 30.0551 115.998 29.6013L119.829 30.8084C119.538 31.8613 118.985 32.8053 118.159 33.6404C117.333 34.4754 116.416 35.1108 115.39 35.5374C114.283 35.9912 113.212 36.2181 112.177 36.2C111.142 36.1909 110.171 35.964 109.263 35.5283C108.356 35.1017 107.539 34.4663 106.795 33.6222C106.304 33.0685 105.923 32.5421 105.542 31.8341L109.508 30.1912Z" fill="#AAA4A9"/>
<path d="M27.819 43.3238C27.0135 43.3238 26.3522 42.6752 26.3353 41.8655C26.3183 41.0474 26.9711 40.3691 27.7893 40.3564C27.8783 40.3564 32.1598 40.2377 36.9924 38.4531C37.7597 38.169 38.616 38.5633 38.9 39.3306C39.184 40.0978 38.7898 40.9541 38.0225 41.2382C32.6727 43.2136 28.0436 43.3196 27.8486 43.3238C27.8359 43.3238 27.8275 43.3238 27.819 43.3238Z" fill="#040000"/>
<path d="M54.1859 48H1.48514C1.02308 48 0.582221 47.7838 0.302439 47.415C0.0226571 47.0462 -0.0706108 46.5672 0.0565628 46.1178L3.56657 33.57L1.31559 33.3115C0.895922 33.2648 0.514388 33.0359 0.268519 32.6883C0.026889 32.3407 -0.0578841 31.9041 0.0396157 31.4929L7.30969 1.14501C7.47926 0.437073 8.13633 -0.0419449 8.85698 0.00892456C9.15372 0.0301202 16.2076 0.57273 23.5031 4.45576C28.2764 6.995 31.4218 9.5427 32.9394 10.9035C33.5287 10.3821 34.1433 9.86064 34.7877 9.34771C43.8382 2.13696 53.4822 0.114904 53.8891 0.0301215C54.3258 -0.0589001 54.7794 0.0513176 55.1227 0.335339C55.4661 0.615121 55.6696 1.03903 55.6696 1.48414V46.5163C55.6696 47.3345 55.004 48 54.1859 48ZM29.298 45.0326H52.7022V3.40446C49.5907 4.31163 42.8929 6.68554 36.6402 11.6665C28.7512 17.9489 25.3429 25.1172 23.6727 28.7714C24.0627 29.1274 24.6223 29.5641 25.2878 29.899C26.3646 30.4373 27.4243 30.4755 27.6999 30.467C27.738 30.4628 27.7762 30.4628 27.8186 30.4628H27.8652C28.6664 30.4628 29.3192 31.0944 29.3489 31.8956C29.3531 32.044 29.3362 32.1881 29.3022 32.3237V45.0326H29.298ZM3.4394 45.0326H26.3306V33.3199C25.6481 33.2055 24.813 32.9808 23.9567 32.5526C22.0279 31.5861 20.7943 30.0685 20.7435 30.0049C20.3916 29.5641 20.3153 28.9621 20.5527 28.4492L20.8325 27.8387C22.1466 24.9604 24.919 18.8773 30.7775 12.9467C29.3319 11.675 26.4197 9.36042 22.1127 7.06706C17.1148 4.40489 12.1381 3.43413 9.89133 3.10772L3.32069 30.5475L5.63526 30.8146C6.06765 30.8655 6.45341 31.0986 6.69504 31.459C6.93667 31.8193 7.00872 32.2686 6.89002 32.6883L3.4394 45.0326Z" fill="#040000"/>
<path d="M32.851 12.922C32.851 12.922 29.4513 9.33148 22.745 5.76214C15.6445 1.98085 8.68804 1.48486 8.68804 1.48486L1.41797 31.8327L5.39851 32.2906L1.41797 46.5128H27.7471V31.9514C27.4801 31.9599 26.0515 31.9769 24.5551 31.2265C22.8934 30.3957 21.8336 29.0773 21.8336 29.0773C23.2664 25.9827 23.9192 20.0353 32.851 12.922ZM15.9454 39.8023C15.6699 40.2771 15.1697 40.5441 14.6567 40.5441C14.4066 40.5441 14.1523 40.4805 13.9191 40.3449C10.5914 38.4288 5.94535 37.6319 5.89872 37.6234C5.08905 37.4877 4.54644 36.7247 4.6821 35.915C4.81775 35.1053 5.58078 34.5627 6.39045 34.6984C6.6024 34.7323 11.6003 35.5886 15.3986 37.776C16.1108 38.1829 16.3566 39.0901 15.9454 39.8023Z" fill="#040000"/>
</svg>
