<svg width="344" height="64" viewBox="0 0 344 64" fill="none" xmlns="http://www.w3.org/2000/svg">
<rect x="1" y="1" width="342" height="62" rx="11" fill="white"/>
<path d="M47.0396 38.384V41H34.4396V24.2H46.7036V26.816H37.5596V31.184H45.6716V33.752H37.5596V38.384H47.0396ZM58.1553 41L54.8673 36.56L51.5553 41H48.2433L53.2353 34.496L48.4593 28.184H51.7953L54.9393 32.384L58.0833 28.184H61.3233L56.5233 34.448L61.5393 41H58.1553ZM70.8572 28.04C72.1052 28.04 73.2172 28.312 74.1932 28.856C75.1852 29.4 75.9612 30.168 76.5212 31.16C77.0812 32.152 77.3612 33.296 77.3612 34.592C77.3612 35.888 77.0812 37.04 76.5212 38.048C75.9612 39.04 75.1852 39.808 74.1932 40.352C73.2172 40.896 72.1052 41.168 70.8572 41.168C69.1292 41.168 67.7612 40.592 66.7532 39.44V45.656H63.7532V28.184H66.6092V29.864C67.1052 29.256 67.7132 28.8 68.4332 28.496C69.1692 28.192 69.9772 28.04 70.8572 28.04ZM70.5212 38.6C71.6252 38.6 72.5292 38.232 73.2332 37.496C73.9532 36.76 74.3132 35.792 74.3132 34.592C74.3132 33.392 73.9532 32.424 73.2332 31.688C72.5292 30.952 71.6252 30.584 70.5212 30.584C69.8012 30.584 69.1532 30.752 68.5772 31.088C68.0012 31.408 67.5452 31.872 67.2092 32.48C66.8732 33.088 66.7052 33.792 66.7052 34.592C66.7052 35.392 66.8732 36.096 67.2092 36.704C67.5452 37.312 68.0012 37.784 68.5772 38.12C69.1532 38.44 69.8012 38.6 70.5212 38.6ZM80.2063 23.192H83.2063V41H80.2063V23.192ZM92.9038 41.168C91.6078 41.168 90.4398 40.888 89.3998 40.328C88.3598 39.768 87.5438 38.992 86.9518 38C86.3758 36.992 86.0878 35.856 86.0878 34.592C86.0878 33.328 86.3758 32.2 86.9518 31.208C87.5438 30.216 88.3598 29.44 89.3998 28.88C90.4398 28.32 91.6078 28.04 92.9038 28.04C94.2158 28.04 95.3918 28.32 96.4318 28.88C97.4718 29.44 98.2798 30.216 98.8558 31.208C99.4478 32.2 99.7438 33.328 99.7438 34.592C99.7438 35.856 99.4478 36.992 98.8558 38C98.2798 38.992 97.4718 39.768 96.4318 40.328C95.3918 40.888 94.2158 41.168 92.9038 41.168ZM92.9038 38.6C94.0078 38.6 94.9198 38.232 95.6398 37.496C96.3598 36.76 96.7198 35.792 96.7198 34.592C96.7198 33.392 96.3598 32.424 95.6398 31.688C94.9198 30.952 94.0078 30.584 92.9038 30.584C91.7998 30.584 90.8878 30.952 90.1678 31.688C89.4638 32.424 89.1118 33.392 89.1118 34.592C89.1118 35.792 89.4638 36.76 90.1678 37.496C90.8878 38.232 91.7998 38.6 92.9038 38.6ZM105.469 30.056C106.333 28.712 107.853 28.04 110.029 28.04V30.896C109.773 30.848 109.541 30.824 109.333 30.824C108.165 30.824 107.253 31.168 106.597 31.856C105.941 32.528 105.613 33.504 105.613 34.784V41H102.613V28.184H105.469V30.056ZM124.504 34.664C124.504 34.872 124.488 35.168 124.456 35.552H114.4C114.576 36.496 115.032 37.248 115.768 37.808C116.52 38.352 117.448 38.624 118.552 38.624C119.96 38.624 121.12 38.16 122.032 37.232L123.64 39.08C123.064 39.768 122.336 40.288 121.456 40.64C120.576 40.992 119.584 41.168 118.48 41.168C117.072 41.168 115.832 40.888 114.76 40.328C113.688 39.768 112.856 38.992 112.264 38C111.688 36.992 111.4 35.856 111.4 34.592C111.4 33.344 111.68 32.224 112.24 31.232C112.816 30.224 113.608 29.44 114.616 28.88C115.624 28.32 116.76 28.04 118.024 28.04C119.272 28.04 120.384 28.32 121.36 28.88C122.352 29.424 123.12 30.2 123.664 31.208C124.224 32.2 124.504 33.352 124.504 34.664ZM118.024 30.44C117.064 30.44 116.248 30.728 115.576 31.304C114.92 31.864 114.52 32.616 114.376 33.56H121.648C121.52 32.632 121.128 31.88 120.472 31.304C119.816 30.728 119 30.44 118.024 30.44ZM149.739 41L149.715 29.864L144.195 39.08H142.803L137.283 30.008V41H134.307V24.2H136.875L143.547 35.336L150.099 24.2H152.667L152.691 41H149.739ZM168.989 34.664C168.989 34.872 168.973 35.168 168.941 35.552H158.885C159.061 36.496 159.517 37.248 160.253 37.808C161.005 38.352 161.933 38.624 163.037 38.624C164.445 38.624 165.605 38.16 166.517 37.232L168.125 39.08C167.549 39.768 166.821 40.288 165.941 40.64C165.061 40.992 164.069 41.168 162.965 41.168C161.557 41.168 160.317 40.888 159.245 40.328C158.173 39.768 157.341 38.992 156.749 38C156.173 36.992 155.885 35.856 155.885 34.592C155.885 33.344 156.165 32.224 156.725 31.232C157.301 30.224 158.093 29.44 159.101 28.88C160.109 28.32 161.245 28.04 162.509 28.04C163.757 28.04 164.869 28.32 165.845 28.88C166.837 29.424 167.605 30.2 168.149 31.208C168.709 32.2 168.989 33.352 168.989 34.664ZM162.509 30.44C161.549 30.44 160.733 30.728 160.061 31.304C159.405 31.864 159.005 32.616 158.861 33.56H166.133C166.005 32.632 165.613 31.88 164.957 31.304C164.301 30.728 163.485 30.44 162.509 30.44ZM179.574 40.304C179.222 40.592 178.79 40.808 178.278 40.952C177.782 41.096 177.254 41.168 176.694 41.168C175.286 41.168 174.198 40.8 173.43 40.064C172.662 39.328 172.278 38.256 172.278 36.848V30.68H170.166V28.28H172.278V25.352H175.278V28.28H178.71V30.68H175.278V36.776C175.278 37.4 175.43 37.88 175.734 38.216C176.038 38.536 176.478 38.696 177.054 38.696C177.726 38.696 178.286 38.52 178.734 38.168L179.574 40.304ZM187.38 41.168C186.084 41.168 184.916 40.888 183.876 40.328C182.836 39.768 182.02 38.992 181.428 38C180.852 36.992 180.564 35.856 180.564 34.592C180.564 33.328 180.852 32.2 181.428 31.208C182.02 30.216 182.836 29.44 183.876 28.88C184.916 28.32 186.084 28.04 187.38 28.04C188.692 28.04 189.868 28.32 190.908 28.88C191.948 29.44 192.756 30.216 193.332 31.208C193.924 32.2 194.22 33.328 194.22 34.592C194.22 35.856 193.924 36.992 193.332 38C192.756 38.992 191.948 39.768 190.908 40.328C189.868 40.888 188.692 41.168 187.38 41.168ZM187.38 38.6C188.484 38.6 189.396 38.232 190.116 37.496C190.836 36.76 191.196 35.792 191.196 34.592C191.196 33.392 190.836 32.424 190.116 31.688C189.396 30.952 188.484 30.584 187.38 30.584C186.276 30.584 185.364 30.952 184.644 31.688C183.94 32.424 183.588 33.392 183.588 34.592C183.588 35.792 183.94 36.76 184.644 37.496C185.364 38.232 186.276 38.6 187.38 38.6ZM204.193 28.04C205.441 28.04 206.553 28.312 207.529 28.856C208.521 29.4 209.297 30.168 209.857 31.16C210.417 32.152 210.697 33.296 210.697 34.592C210.697 35.888 210.417 37.04 209.857 38.048C209.297 39.04 208.521 39.808 207.529 40.352C206.553 40.896 205.441 41.168 204.193 41.168C203.313 41.168 202.505 41.016 201.769 40.712C201.049 40.408 200.441 39.952 199.945 39.344V41H197.089V23.192H200.089V29.744C200.601 29.184 201.201 28.76 201.889 28.472C202.593 28.184 203.361 28.04 204.193 28.04ZM203.857 38.6C204.961 38.6 205.865 38.232 206.569 37.496C207.289 36.76 207.649 35.792 207.649 34.592C207.649 33.392 207.289 32.424 206.569 31.688C205.865 30.952 204.961 30.584 203.857 30.584C203.137 30.584 202.489 30.752 201.913 31.088C201.337 31.408 200.881 31.872 200.545 32.48C200.209 33.088 200.041 33.792 200.041 34.592C200.041 35.392 200.209 36.096 200.545 36.704C200.881 37.312 201.337 37.784 201.913 38.12C202.489 38.44 203.137 38.6 203.857 38.6ZM219.302 41.168C218.006 41.168 216.838 40.888 215.798 40.328C214.758 39.768 213.942 38.992 213.35 38C212.774 36.992 212.486 35.856 212.486 34.592C212.486 33.328 212.774 32.2 213.35 31.208C213.942 30.216 214.758 29.44 215.798 28.88C216.838 28.32 218.006 28.04 219.302 28.04C220.614 28.04 221.79 28.32 222.83 28.88C223.87 29.44 224.678 30.216 225.254 31.208C225.846 32.2 226.142 33.328 226.142 34.592C226.142 35.856 225.846 36.992 225.254 38C224.678 38.992 223.87 39.768 222.83 40.328C221.79 40.888 220.614 41.168 219.302 41.168ZM219.302 38.6C220.406 38.6 221.318 38.232 222.038 37.496C222.758 36.76 223.118 35.792 223.118 34.592C223.118 33.392 222.758 32.424 222.038 31.688C221.318 30.952 220.406 30.584 219.302 30.584C218.198 30.584 217.286 30.952 216.566 31.688C215.862 32.424 215.51 33.392 215.51 34.592C215.51 35.792 215.862 36.76 216.566 37.496C217.286 38.232 218.198 38.6 219.302 38.6ZM236.715 40.304C236.363 40.592 235.931 40.808 235.419 40.952C234.923 41.096 234.395 41.168 233.835 41.168C232.427 41.168 231.339 40.8 230.571 40.064C229.803 39.328 229.419 38.256 229.419 36.848V30.68H227.307V28.28H229.419V25.352H232.419V28.28H235.851V30.68H232.419V36.776C232.419 37.4 232.571 37.88 232.875 38.216C233.179 38.536 233.619 38.696 234.195 38.696C234.867 38.696 235.427 38.52 235.875 38.168L236.715 40.304ZM242.159 45.656C241.215 44.2 240.487 42.512 239.975 40.592C239.479 38.672 239.231 36.616 239.231 34.424C239.231 32.232 239.479 30.176 239.975 28.256C240.487 26.32 241.215 24.632 242.159 23.192H245.015C244.039 24.92 243.319 26.704 242.855 28.544C242.407 30.368 242.183 32.328 242.183 34.424C242.183 36.52 242.407 38.488 242.855 40.328C243.319 42.152 244.039 43.928 245.015 45.656H242.159ZM259.695 32.264C260.623 32.568 261.359 33.08 261.903 33.8C262.447 34.504 262.719 35.384 262.719 36.44C262.719 37.896 262.159 39.024 261.039 39.824C259.919 40.608 258.287 41 256.143 41H247.791V24.2H255.663C257.647 24.2 259.175 24.592 260.247 25.376C261.319 26.144 261.855 27.208 261.855 28.568C261.855 29.4 261.663 30.136 261.279 30.776C260.895 31.416 260.367 31.912 259.695 32.264ZM250.911 26.648V31.28H255.327C256.415 31.28 257.247 31.088 257.823 30.704C258.415 30.304 258.711 29.728 258.711 28.976C258.711 28.208 258.415 27.632 257.823 27.248C257.247 26.848 256.415 26.648 255.327 26.648H250.911ZM255.951 38.552C258.367 38.552 259.575 37.744 259.575 36.128C259.575 34.512 258.367 33.704 255.951 33.704H250.911V38.552H255.951ZM277.809 34.664C277.809 34.872 277.793 35.168 277.761 35.552H267.705C267.881 36.496 268.337 37.248 269.073 37.808C269.825 38.352 270.753 38.624 271.857 38.624C273.265 38.624 274.425 38.16 275.337 37.232L276.945 39.08C276.369 39.768 275.641 40.288 274.761 40.64C273.881 40.992 272.889 41.168 271.785 41.168C270.377 41.168 269.137 40.888 268.065 40.328C266.993 39.768 266.161 38.992 265.569 38C264.993 36.992 264.705 35.856 264.705 34.592C264.705 33.344 264.985 32.224 265.545 31.232C266.121 30.224 266.913 29.44 267.921 28.88C268.929 28.32 270.065 28.04 271.329 28.04C272.577 28.04 273.689 28.32 274.665 28.88C275.657 29.424 276.425 30.2 276.969 31.208C277.529 32.2 277.809 33.352 277.809 34.664ZM271.329 30.44C270.369 30.44 269.553 30.728 268.881 31.304C268.225 31.864 267.825 32.616 267.681 33.56H274.953C274.825 32.632 274.433 31.88 273.777 31.304C273.121 30.728 272.305 30.44 271.329 30.44ZM288.395 40.304C288.043 40.592 287.611 40.808 287.099 40.952C286.603 41.096 286.075 41.168 285.515 41.168C284.107 41.168 283.019 40.8 282.251 40.064C281.483 39.328 281.099 38.256 281.099 36.848V30.68H278.987V28.28H281.099V25.352H284.099V28.28H287.531V30.68H284.099V36.776C284.099 37.4 284.251 37.88 284.555 38.216C284.859 38.536 285.299 38.696 285.875 38.696C286.547 38.696 287.107 38.52 287.555 38.168L288.395 40.304ZM295.759 28.04C297.647 28.04 299.087 28.496 300.079 29.408C301.087 30.304 301.591 31.664 301.591 33.488V41H298.759V39.44C298.391 40 297.863 40.432 297.175 40.736C296.503 41.024 295.687 41.168 294.727 41.168C293.767 41.168 292.927 41.008 292.207 40.688C291.487 40.352 290.927 39.896 290.527 39.32C290.143 38.728 289.951 38.064 289.951 37.328C289.951 36.176 290.375 35.256 291.223 34.568C292.087 33.864 293.439 33.512 295.279 33.512H298.591V33.32C298.591 32.424 298.319 31.736 297.775 31.256C297.247 30.776 296.455 30.536 295.399 30.536C294.679 30.536 293.967 30.648 293.263 30.872C292.575 31.096 291.991 31.408 291.511 31.808L290.335 29.624C291.007 29.112 291.815 28.72 292.759 28.448C293.703 28.176 294.703 28.04 295.759 28.04ZM295.351 38.984C296.103 38.984 296.767 38.816 297.343 38.48C297.935 38.128 298.351 37.632 298.591 36.992V35.504H295.495C293.767 35.504 292.903 36.072 292.903 37.208C292.903 37.752 293.119 38.184 293.551 38.504C293.983 38.824 294.583 38.984 295.351 38.984ZM304.001 45.656C304.977 43.928 305.697 42.144 306.161 40.304C306.625 38.464 306.857 36.504 306.857 34.424C306.857 32.344 306.625 30.384 306.161 28.544C305.697 26.704 304.977 24.92 304.001 23.192H306.857C307.801 24.616 308.521 26.296 309.017 28.232C309.529 30.152 309.785 32.216 309.785 34.424C309.785 36.632 309.529 38.696 309.017 40.616C308.521 42.52 307.801 44.2 306.857 45.656H304.001Z" fill="url(#paint0_linear_630_197)"/>
<rect x="1" y="1" width="342" height="62" rx="11" stroke="url(#paint1_linear_630_197)" stroke-width="2"/>
<defs>
<linearGradient id="paint0_linear_630_197" x1="86.6058" y1="1.58621" x2="109.795" y2="96.5431" gradientUnits="userSpaceOnUse">
<stop stop-color="#6451F7"/>
<stop offset="1" stop-color="#FFCADF"/>
</linearGradient>
<linearGradient id="paint1_linear_630_197" x1="82.8148" y1="15.2" x2="346.538" y2="149.412" gradientUnits="userSpaceOnUse">
<stop stop-color="#6451F7"/>
<stop offset="1" stop-color="#FFCADF"/>
</linearGradient>
</defs>
</svg>
