<?xml version="1.0" encoding="utf-8"?>
<!-- Generator: Adobe Illustrator 24.0.0, SVG Export Plug-In . SVG Version: 6.00 Build 0)  -->
<svg version="1.1" id="图层_1" xmlns="http://www.w3.org/2000/svg" xmlns:xlink="http://www.w3.org/1999/xlink" x="0px" y="0px"
	 viewBox="0 0 90 90" style="enable-background:new 0 0 90 90;" xml:space="preserve">
<style type="text/css">
	.st0{fill:#2081E200;}
</style>
<g>
	<path class="st0" stroke="#5A49DE" stroke-width="5" stroke-linecap="round" stroke-linejoin="round" d="M8.6,50.3l0.3-0.5l17.5-27.3c0.3-0.4,0.9-0.4,1,0.1c2.9,6.5,5.4,14.7,4.3,19.7c-0.5,2.1-1.9,4.9-3.4,7.5
		c-0.2,0.4-0.4,0.8-0.7,1.1c-0.1,0.2-0.3,0.3-0.5,0.3h-18C8.6,51.2,8.3,50.7,8.6,50.3z"/>
	<path class="st0" stroke="#5A49DE" stroke-width="5" stroke-linecap="round" stroke-linejoin="round" d="M86.4,55.4v4.3c0,0.2-0.2,0.5-0.4,0.6c-1.4,0.6-6,2.7-7.9,5.4c-4.9,6.8-8.7,16.6-17,16.6h-35
		c-12.4,0-22.4-10.1-22.4-22.5v-0.4c0-0.3,0.3-0.6,0.6-0.6h19.5c0.4,0,0.7,0.4,0.6,0.7c-0.1,1.3,0.1,2.6,0.7,3.7
		c1.2,2.4,3.6,3.8,6.1,3.8h9.7v-7.5h-9.5c-0.5,0-0.8-0.6-0.5-1c0.1-0.2,0.2-0.3,0.3-0.5c0.9-1.3,2.2-3.3,3.5-5.5
		c0.9-1.5,1.7-3.2,2.4-4.8c0.1-0.3,0.2-0.6,0.4-0.9c0.2-0.5,0.4-1,0.5-1.5c0.1-0.4,0.2-0.8,0.4-1.3c0.3-1.4,0.5-2.9,0.5-4.4
		c0-0.6,0-1.2-0.1-1.8c0-0.7-0.1-1.3-0.2-2c-0.1-0.6-0.2-1.2-0.3-1.8c-0.1-0.9-0.3-1.7-0.6-2.6l-0.1-0.3c-0.2-0.6-0.3-1.2-0.5-1.8
		c-0.5-1.9-1.2-3.7-1.8-5.4c-0.2-0.7-0.5-1.3-0.8-2c-0.4-1-0.8-1.9-1.2-2.7c-0.2-0.4-0.4-0.7-0.5-1.1c-0.2-0.4-0.4-0.8-0.6-1.2
		c-0.1-0.3-0.3-0.6-0.4-0.8l-1.2-2.2c-0.2-0.3,0.1-0.6,0.4-0.6l7.4,2h0c0,0,0,0,0,0l1,0.3l1.1,0.3l0.4,0.1v-4.4
		c0-2.1,1.7-3.8,3.8-3.8c1,0,2,0.4,2.7,1.1c0.7,0.7,1.1,1.6,1.1,2.7v6.5l0.8,0.2c0.1,0,0.1,0,0.2,0.1c0.2,0.1,0.5,0.4,0.8,0.6
		c0.3,0.2,0.6,0.5,0.9,0.8c0.7,0.6,1.6,1.3,2.5,2.2c0.2,0.2,0.5,0.4,0.7,0.7c1.2,1.1,2.5,2.4,3.8,3.9c0.4,0.4,0.7,0.8,1.1,1.3
		c0.4,0.4,0.7,0.9,1.1,1.3c0.4,0.6,0.9,1.2,1.3,1.8c0.2,0.3,0.4,0.6,0.6,0.9c0.5,0.8,1,1.6,1.4,2.4c0.2,0.4,0.4,0.8,0.5,1.2
		c0.5,1.1,0.9,2.2,1.1,3.3c0.1,0.2,0.1,0.5,0.2,0.7v0.1c0.1,0.3,0.1,0.7,0.1,1c0.1,1.1,0.1,2.3-0.2,3.4c-0.1,0.5-0.2,1-0.4,1.4
		c-0.2,0.5-0.3,1-0.5,1.4c-0.4,1-0.9,1.9-1.5,2.8c-0.2,0.3-0.4,0.7-0.6,1c-0.2,0.4-0.5,0.7-0.7,1c-0.3,0.4-0.6,0.8-1,1.2
		c-0.3,0.4-0.6,0.8-0.9,1.2c-0.5,0.5-0.9,1.1-1.4,1.6c-0.3,0.3-0.6,0.7-0.9,1c-0.3,0.3-0.6,0.6-0.9,0.9c-0.5,0.5-0.8,0.8-1.2,1.1
		l-0.8,0.7c-0.1,0.1-0.3,0.2-0.4,0.2h-5.9V67h7.4c1.7,0,3.2-0.6,4.5-1.7c0.4-0.4,2.3-2,4.6-4.5c0.1-0.1,0.2-0.1,0.3-0.2l20.4-5.9
		C86,54.7,86.4,55,86.4,55.4z"/>
</g>
</svg>
