<svg width="16" height="18" viewBox="0 0 16 18" fill="none" xmlns="http://www.w3.org/2000/svg">
<path fill-rule="evenodd" clip-rule="evenodd" d="M0 17.5C0.0320285 17.3322 0.0694289 17.1655 0.11215 17C0.205328 16.6391 0.323816 16.2844 0.46708 15.9385C0.869118 14.9679 1.45839 14.086 2.20126 13.3431C2.94413 12.6003 3.82604 12.011 4.79665 11.609C5.76725 11.2069 6.80754 11 7.85812 11C8.90869 11 9.94898 11.2069 10.9196 11.609C11.8902 12.011 12.7721 12.6003 13.515 13.3431C14.2578 14.086 14.8471 14.9679 15.2492 15.9385C15.3924 16.2844 15.5109 16.6391 15.6041 17C15.6468 17.1655 15.6842 17.3322 15.7162 17.5H13.8619C13.7881 17.2046 13.6924 16.9144 13.5754 16.6318C13.2644 15.881 12.8085 15.1989 12.2339 14.6242C11.6593 14.0496 10.9771 13.5938 10.2263 13.2828C9.47548 12.9718 8.67078 12.8117 7.85812 12.8117C7.04546 12.8117 6.24076 12.9718 5.48996 13.2828C4.73916 13.5938 4.05697 14.0496 3.48233 14.6242C2.9077 15.1989 2.45187 15.881 2.14088 16.6318C2.02384 16.9144 1.92817 17.2046 1.85437 17.5H0Z" fill="#706B99"/>
<circle cx="7.85815" cy="5" r="4" stroke="#706B99" stroke-width="2"/>
</svg>
