<svg xmlns="http://www.w3.org/2000/svg" viewBox="0 0 222.59 169.79"><g id="Layer_2" data-name="Layer 2"><g id="图层_1" data-name="图层 1"><path d="M31.67,140.11,0,.51,1.62,0c.15.38,15.93,38.53,30.8,60L31,61C20.37,45.59,9.27,21.76,3.7,9.14L33.32,139.73Z" fill="#0b70ff"/><polygon points="48.53 140.46 47.21 139.39 135.32 30.56 196.2 66.69 195.33 68.15 135.72 32.77 48.53 140.46" fill="#0b70ff"/><rect x="136.74" y="87.37" width="60.83" height="1.7" transform="translate(-16.5 43.58) rotate(-14.16)" fill="#0b70ff"/><path d="M43.93,120.19l1.43-1.92c14.49-19.49,50.91-71.88,45.44-80-.09-.13-.14-.14-.2-.14h0c-1.79,0-6.81,6.15-11.67,12.09-5.29,6.48-11.3,13.82-17.33,19l-1.11-1.28c5.92-5.14,11.87-12.42,17.12-18.85,6.81-8.32,10.51-12.71,13-12.71h.1a1.91,1.91,0,0,1,1.53.89c3.16,4.71-3.42,19.55-20.1,45.37-9.8,15.17-20.27,29.66-24,34.74L110,101.75l.41,1.65Z" fill="#0b70ff"/><path d="M55.61,70.55a5.26,5.26,0,0,0-.93-2c-1.44-2.14-4.92-3.28-7.41-4l-.94-.24A17.81,17.81,0,0,1,42.27,63a3.31,3.31,0,0,1-2.05-3,3.05,3.05,0,0,1,.06-.6v0a2.68,2.68,0,0,1,.07-.27l0-.05a3.41,3.41,0,0,1,.86-1.37,6.26,6.26,0,0,1,4.44-1.61h.06a9.58,9.58,0,0,1,3.85.91,10.22,10.22,0,0,1,3.21,2.28l0,2.59H55V54.13H52.83v1.74a.1.1,0,0,1-.06.09.09.09,0,0,1-.09,0,11.28,11.28,0,0,0-3.12-1.68,12.1,12.1,0,0,0-3.73-.65,11.53,11.53,0,0,0-3.64.49,7.2,7.2,0,0,0-2.27,1.26,6,6,0,0,0-2.28,4.71,5.52,5.52,0,0,0,.19,1.55,6,6,0,0,0,.76,1.58l.14.19,0,0c1.47,2,4.73,2.92,7.14,3.58l.6.17.58.15a24.89,24.89,0,0,1,3.65,1.22,4.17,4.17,0,0,1,1.6,1.22A3.68,3.68,0,0,1,53,73.28a4.79,4.79,0,0,1-1.15,1.81,5.65,5.65,0,0,1-1.95,1.11,8,8,0,0,1-2.16.39,10.81,10.81,0,0,1-3.49-.4A10.2,10.2,0,0,1,39.42,73a.42.42,0,0,1-.08-.17l0-2.22H37.13v8.09h2.18V76.23a9.8,9.8,0,0,0,3.25,1.93,13.55,13.55,0,0,0,4.29.82H47a9.7,9.7,0,0,0,6.43-1.93,6.7,6.7,0,0,0,2.25-4.21A6.26,6.26,0,0,0,55.61,70.55Zm-3.79-1.33,0,0Zm-.4-.3,0,0ZM51,68.66l-.06,0Zm1.2.92-.06-.06Zm-2.08,6.54.08,0Zm.51-.22.09-.05Zm.49-.27.1-.06Zm.47-.32a.27.27,0,0,1,.08-.07A.27.27,0,0,0,51.58,75.31Z"/><path d="M49.64,159.23c-1.46-2.17-5-3.32-7.48-4l-.93-.23h0a18.05,18.05,0,0,1-4.09-1.37,3.33,3.33,0,0,1-2-3,3,3,0,0,1,.05-.6v0a2.68,2.68,0,0,1,.07-.27l0,0h0a3.43,3.43,0,0,1,.87-1.37,6.27,6.27,0,0,1,4.45-1.61h.05a9.63,9.63,0,0,1,3.87.91,10.5,10.5,0,0,1,3.23,2.29l0,2.6v0H50v-7.85H47.72v1.78a.08.08,0,0,1,0,.07s0,0-.06,0a11.79,11.79,0,0,0-3.15-1.7,12,12,0,0,0-3.78-.65,11.52,11.52,0,0,0-3.68.5,7.08,7.08,0,0,0-2.28,1.27A6,6,0,0,0,33,148.08a6.29,6.29,0,0,0-.59,2.61,5.3,5.3,0,0,0,.2,1.57,5.81,5.81,0,0,0,.77,1.6l.09.13.05.07,0,0c1.49,2,4.79,2.95,7.21,3.62l.07,0,.54.14.58.16a24.13,24.13,0,0,1,3.68,1.23,4.41,4.41,0,0,1,1.6,1.21,3.81,3.81,0,0,1,.79,1.69,3.62,3.62,0,0,1-.14,1.84,4.64,4.64,0,0,1-1.14,1.81,5.55,5.55,0,0,1-2,1.12,8.05,8.05,0,0,1-2.17.39,10.88,10.88,0,0,1-3.5-.4,10.17,10.17,0,0,1-4.83-3.23.42.42,0,0,1-.09-.15l0-2.25v0H31.9v8.21h2.26v-2.41a9.75,9.75,0,0,0,3.23,1.9,13.58,13.58,0,0,0,4.33.83h.19a9.8,9.8,0,0,0,6.5-2,6.72,6.72,0,0,0,1.55-2,6.65,6.65,0,0,0,.73-2.3,6.37,6.37,0,0,0-.1-2.31A5.21,5.21,0,0,0,49.64,159.23Z"/><path d="M219.81,84.71l-6.19-9.35a6.76,6.76,0,0,0,6.16-3.43,7.52,7.52,0,0,0,.81-3.42,7.13,7.13,0,0,0-2.06-5,7.7,7.7,0,0,0-5.45-1.93h-12v2.59h2.55V84.74h-2.77v2.17h8V84.74h-2.58V75.4h4.33l6.06,9.34h-2.77v2.17h8.65V84.74h-2.7A.1.1,0,0,1,219.81,84.71ZM206.32,64H213a4.8,4.8,0,0,1,4.39,2.2,4.62,4.62,0,0,1-.07,4.54,3.91,3.91,0,0,1-3.9,2.13h-7.05Z"/><path d="M133.17,106.25A6.31,6.31,0,0,0,129,99.94a5.54,5.54,0,0,0,3.18-5c0-4.53-3.8-6.93-8.75-6.93a9,9,0,0,0-7.56,3.68L117.94,93a6.24,6.24,0,0,1,5.49-2.62c3.59,0,6.15,1.46,6.15,4.25s-2.56,4.14-5.18,4.14h-3.57v2.57h3.78c3.34,0,6,1.8,5.9,4.86-.19,3.27-3.06,5-6.81,5a9.59,9.59,0,0,1-7.11-2.9l-.1,0-1.76,1.92.09,0a12.66,12.66,0,0,0,8.88,3.58C128.88,113.8,133.17,111,133.17,106.25Z"/></g></g></svg>