<svg width="26" height="22" viewBox="0 0 26 22" fill="none" xmlns="http://www.w3.org/2000/svg">
<mask id="path-1-inside-1_1649_1921" fill="white">
<path d="M7.3277 21.9915C9.46219 22.0595 11.5893 21.7193 13.5834 20.9911C15.5775 20.2628 17.3981 19.1613 18.9375 17.7515C20.477 16.3418 21.7041 14.6524 22.5464 12.7833C23.3886 10.9142 23.8289 8.9033 23.8412 6.86938C24.8194 5.71654 25.5458 4.38912 25.9776 2.96513C26.0098 2.85262 26.0072 2.73364 25.9701 2.62251C25.933 2.51138 25.8629 2.41284 25.7683 2.33875C25.6738 2.26467 25.5587 2.2182 25.4371 2.20494C25.3154 2.19168 25.1923 2.21219 25.0826 2.26401C24.5709 2.49862 23.9947 2.5744 23.4354 2.48068C22.876 2.38696 22.3616 2.12847 21.9647 1.74161C21.458 1.21313 20.845 0.7869 20.1621 0.488166C19.4793 0.189431 18.7404 0.0242739 17.9893 0.00248023C17.2381 -0.0193134 16.4901 0.1027 15.7894 0.361291C15.0887 0.619881 14.4496 1.00979 13.91 1.50791C13.1712 2.18931 12.6301 3.04114 12.3392 3.98061C12.0483 4.92009 12.0176 5.91525 12.25 6.86938C7.41431 7.14433 4.09429 4.9585 1.43826 1.96157C1.35847 1.87551 1.25409 1.81345 1.13788 1.78295C1.02166 1.75245 0.898634 1.75485 0.783821 1.78984C0.669008 1.82483 0.567379 1.8909 0.491343 1.97999C0.415307 2.06908 0.368155 2.17732 0.355646 2.29151C-0.150341 4.96458 0.214659 7.7211 1.40163 10.1908C2.58859 12.6606 4.54068 14.7253 6.9957 16.1076C5.3496 17.9055 3.03795 19.0285 0.5433 19.242C0.40965 19.2631 0.286275 19.3235 0.190441 19.4147C0.094607 19.5059 0.0311107 19.6233 0.00883871 19.7506C-0.0134332 19.8779 0.00663382 20.0086 0.0662314 20.1245C0.125829 20.2403 0.221974 20.3355 0.341211 20.3968C2.51153 21.4297 4.90153 21.9753 7.3277 21.9915Z"/>
</mask>
<path d="M23.8412 6.86938L22.6975 5.89891L22.3446 6.31484L22.3413 6.8603L23.8412 6.86938ZM25.9776 2.96513L27.413 3.40044L27.4164 3.38938L27.4196 3.37828L25.9776 2.96513ZM25.0826 2.26401L25.7077 3.62756L25.7156 3.62397L25.7233 3.62029L25.0826 2.26401ZM21.9647 1.74161L20.882 2.77977L20.8996 2.79811L20.9178 2.81585L21.9647 1.74161ZM13.91 1.50791L14.927 2.61053L14.9275 2.61006L13.91 1.50791ZM12.25 6.86938L12.3352 8.36696L14.1337 8.2647L13.7074 6.51441L12.25 6.86938ZM1.43826 1.96157L2.56085 0.966682L2.54967 0.954067L2.53821 0.941707L1.43826 1.96157ZM0.355646 2.29151L1.82947 2.57049L1.84035 2.51301L1.84673 2.45486L0.355646 2.29151ZM6.9957 16.1076L8.10204 17.1205L9.3776 15.7273L7.73165 14.8006L6.9957 16.1076ZM0.5433 19.242L0.415363 17.7475L0.362098 17.752L0.309293 17.7604L0.5433 19.242ZM0.341211 20.3968L-0.344163 21.7311L-0.323938 21.7414L-0.303408 21.7512L0.341211 20.3968ZM7.27993 23.4907C9.60473 23.5648 11.9228 23.1944 14.098 22.4001L13.0689 19.5821C11.2558 20.2442 9.31964 20.5542 7.37548 20.4922L7.27993 23.4907ZM14.098 22.4001C16.2732 21.6057 18.2639 20.4024 19.9506 18.8578L17.9245 16.6453C16.5323 17.9202 14.8818 18.92 13.0689 19.5821L14.098 22.4001ZM19.9506 18.8578C21.6375 17.313 22.9865 15.4578 23.9139 13.3996L21.1788 12.1671C20.4218 13.847 19.3166 15.3705 17.9245 16.6453L19.9506 18.8578ZM23.9139 13.3996C24.8415 11.3411 25.3276 9.1235 25.3412 6.87846L22.3413 6.8603C22.3302 8.6831 21.9357 10.4874 21.1788 12.1671L23.9139 13.3996ZM24.985 7.83986C26.0938 6.53305 26.9207 5.02412 27.413 3.40044L24.5422 2.52982C24.1709 3.75413 23.545 4.90003 22.6975 5.89891L24.985 7.83986ZM27.4196 3.37828C27.5354 2.97412 27.5258 2.54541 27.3928 2.14723L24.5474 3.09779C24.4886 2.92187 24.4843 2.73112 24.5356 2.55198L27.4196 3.37828ZM27.3928 2.14723C27.2601 1.74984 27.0132 1.40848 26.6934 1.15795L24.8433 3.51955C24.7126 3.41719 24.6059 3.27292 24.5474 3.09779L27.3928 2.14723ZM26.6934 1.15795C26.3743 0.907945 25.9939 0.756745 25.5996 0.713767L25.2746 3.6961C25.1236 3.67965 24.9733 3.62139 24.8433 3.51955L26.6934 1.15795ZM25.5996 0.713767C25.2054 0.670803 24.8041 0.736645 24.4419 0.907732L25.7233 3.62029C25.5806 3.68774 25.4254 3.71255 25.2746 3.6961L25.5996 0.713767ZM24.4575 0.90047C24.2208 1.009 23.9489 1.04582 23.6833 1.0013L23.1875 3.96006C24.0406 4.10298 24.921 3.98824 25.7077 3.62756L24.4575 0.90047ZM23.6833 1.0013C23.4178 0.956829 23.1843 0.835715 23.0116 0.667381L20.9178 2.81585C21.539 3.42122 22.3342 3.81709 23.1875 3.96006L23.6833 1.0013ZM23.0474 0.703461C22.4014 0.0297091 21.6239 -0.509598 20.7633 -0.886086L19.5609 1.86242C20.0661 2.0834 20.5146 2.39656 20.882 2.77977L23.0474 0.703461ZM20.7633 -0.886086C19.9028 -1.26253 18.9745 -1.46957 18.0328 -1.49689L17.9457 1.50185C18.5063 1.51811 19.0557 1.64139 19.5609 1.86242L20.7633 -0.886086ZM18.0328 -1.49689C17.0911 -1.52421 16.1518 -1.37137 15.27 -1.04594L16.3087 1.76852C16.8283 1.57677 17.3852 1.48559 17.9457 1.50185L18.0328 -1.49689ZM15.27 -1.04594C14.3881 -0.720475 13.5791 -0.228035 12.8925 0.405755L14.9275 2.61006C15.3201 2.24761 15.7892 1.96024 16.3087 1.76852L15.27 -1.04594ZM12.893 0.405291C11.9645 1.26175 11.2772 2.33929 10.9063 3.53696L13.7721 4.42426C13.9831 3.74299 14.378 3.11686 14.927 2.61053L12.893 0.405291ZM10.9063 3.53696C10.5354 4.73513 10.4959 6.00628 10.7926 7.22435L13.7074 6.51441C13.5393 5.82422 13.5613 5.10505 13.7721 4.42426L10.9063 3.53696ZM12.1649 5.3718C7.93294 5.61242 5.02431 3.74634 2.56085 0.966682L0.315679 2.95646C3.16426 6.17066 6.89568 8.67624 12.3352 8.36696L12.1649 5.3718ZM2.53821 0.941707C2.2597 0.641328 1.90371 0.43313 1.51861 0.332073L0.757148 3.23383C0.604475 3.19376 0.457246 3.1097 0.33832 2.98144L2.53821 0.941707ZM1.51861 0.332073C1.1338 0.231095 0.727564 0.23887 0.34654 0.35499L1.2211 3.22468C1.0697 3.27082 0.909521 3.27381 0.757148 3.23383L1.51861 0.332073ZM0.34654 0.35499C-0.0348342 0.471217 -0.382981 0.693823 -0.649594 1.0062L1.63228 2.95377C1.51774 3.08798 1.37285 3.17844 1.2211 3.22468L0.34654 0.35499ZM-0.649594 1.0062C-0.916916 1.31941 -1.08947 1.70863 -1.13543 2.12816L1.84673 2.45486C1.82578 2.64602 1.74753 2.81874 1.63228 2.95377L-0.649594 1.0062ZM-1.11818 2.01253C-1.68419 5.00269 -1.27495 8.08447 0.0496585 10.8406L2.75359 9.54108C1.70427 7.35773 1.38351 4.92647 1.82947 2.57049L-1.11818 2.01253ZM0.0496585 10.8406C1.37372 13.5956 3.54495 15.8861 6.25975 17.4147L7.73165 14.8006C5.53641 13.5645 3.80347 11.7256 2.75359 9.54108L0.0496585 10.8406ZM5.88936 15.0947C4.50494 16.6068 2.54625 17.5651 0.415363 17.7475L0.671236 20.7365C3.52965 20.4919 6.19426 19.2043 8.10204 17.1205L5.88936 15.0947ZM0.309293 17.7604C-0.117622 17.8278 -0.522029 18.0221 -0.843598 18.3281L1.22448 20.5013C1.09458 20.6249 0.936923 20.6984 0.777306 20.7236L0.309293 17.7604ZM-0.843598 18.3281C-1.16613 18.635 -1.38966 19.0404 -1.46871 19.492L1.48638 20.0092C1.45188 20.2063 1.35535 20.3768 1.22448 20.5013L-0.843598 18.3281ZM-1.46871 19.492C-1.54787 19.9444 -1.47547 20.4065 -1.26766 20.8106L1.40012 19.4384C1.48874 19.6106 1.521 19.8114 1.48638 20.0092L-1.46871 19.492ZM-1.26766 20.8106C-1.06049 21.2133 -0.733354 21.5311 -0.344163 21.7311L1.02659 19.0625C1.1773 19.1399 1.31215 19.2673 1.40012 19.4384L-1.26766 20.8106ZM-0.303408 21.7512C2.06715 22.8795 4.674 23.4738 7.31767 23.4915L7.33774 20.4915C5.12906 20.4767 2.9559 19.98 0.985831 19.0424L-0.303408 21.7512Z" fill="#5A49DE" mask="url(#path-1-inside-1_1649_1921)"/>
</svg>
