<svg width="14" height="12" viewBox="0 0 14 12" fill="none" xmlns="http://www.w3.org/2000/svg">
<path d="M13.6668 0.673342C13.0002 1.00001 12.3468 1.13268 11.6668 1.33334C10.9195 0.490009 9.8115 0.443342 8.74683 0.842009C7.68216 1.24068 6.98483 2.21534 7.00016 3.33334V4.00001C4.83683 4.05534 2.91016 3.07001 1.66683 1.33334C1.66683 1.33334 -1.12117 6.28868 4.3335 8.66668C3.0855 9.49801 1.84083 10.0587 0.333496 10C2.53883 11.202 4.94216 11.6153 7.02283 11.0113C9.4095 10.318 11.3708 8.52934 12.1235 5.85001C12.348 5.03512 12.4595 4.19325 12.4548 3.34801C12.4535 3.18201 13.4615 1.50001 13.6668 0.672675V0.673342Z" fill="#000"/>
</svg>
